<svg width="56" height="56" viewBox="0 0 56 56" fill="none" xmlns="http://www.w3.org/2000/svg">
<path fill-rule="evenodd" clip-rule="evenodd" d="M56 28C56 43.464 43.464 56 28 56C12.536 56 0 43.464 0 28C0 12.536 12.536 0 28 0C43.464 0 56 12.536 56 28ZM28 14.5C24.4101 14.5 21.5 17.4102 21.5 21V21.5082C21.5 22.8889 20.3807 24.0082 19 24.0082C17.6193 24.0082 16.5 22.8889 16.5 21.5082V21C16.5 14.6487 21.6487 9.5 28 9.5H28.7729C34.6973 9.5 39.5 14.3027 39.5 20.2271C39.5 24.0117 37.5057 27.5162 34.252 29.4493L32.5128 30.4825C31.2649 31.224 30.5 32.5681 30.5 34.0197V34.4C30.5 35.7807 29.3807 36.9 28 36.9C26.6193 36.9 25.5 35.7807 25.5 34.4V34.0197C25.5 30.8041 27.1945 27.8264 29.959 26.1839L31.6981 25.1507C33.4353 24.1187 34.5 22.2476 34.5 20.2271C34.5 17.0641 31.9359 14.5 28.7729 14.5H28ZM30.5 41.5999C30.5 40.2192 29.3807 39.0999 28 39.0999C26.6193 39.0999 25.5 40.2192 25.5 41.5999V43.1999C25.5 44.5806 26.6193 45.6999 28 45.6999C29.3807 45.6999 30.5 44.5806 30.5 43.1999V41.5999Z" fill="#D9D9D9"/>
</svg>
