<svg width="301" height="410" viewBox="0 0 301 410" fill="none" xmlns="http://www.w3.org/2000/svg">
<ellipse rx="79.5" ry="79" transform="matrix(-1 0 0 1 221.5 79)" fill="#3AB54B"/>
<circle r="79.5" transform="matrix(-1 0 0 1 79.5 203.5)" fill="#8DC73F"/>
<circle r="79.5" transform="matrix(-1 0 0 1 221.5 330.5)" fill="#D6DF1F"/>
<path fill-rule="evenodd" clip-rule="evenodd" d="M194.75 80.5264L213.25 80.5264C215.459 80.5264 217.25 82.3172 217.25 84.5264L217.25 95.579L217.25 109.088C217.25 111.297 215.459 113.088 213.25 113.088C211.041 113.088 209.25 111.297 209.25 109.088L209.25 99.579L205.38 99.579C206.354 101.114 206.182 103.17 204.853 104.523C203.305 106.098 200.773 106.121 199.197 104.573L198.844 104.226C197.505 102.91 196.75 101.111 196.75 99.2331L196.75 98.579C196.75 94.713 199.884 91.579 203.75 91.579L209.25 91.579L209.25 88.5264L193.75 88.5264C189.884 88.5264 186.75 85.3924 186.75 81.5264L186.75 79L186.75 76.4737C186.75 72.6077 189.884 69.4737 193.75 69.4737L209.25 69.4737L209.25 66.4211L203.75 66.4211C199.884 66.4211 196.75 63.2871 196.75 59.4211L196.75 58.767C196.75 56.8891 197.505 55.0898 198.844 53.7737L199.197 53.4274C200.773 51.8792 203.305 51.9016 204.853 53.4775C206.182 54.8297 206.354 56.8864 205.38 58.4211L209.25 58.4211L209.25 48.9123C209.25 46.7032 211.041 44.9123 213.25 44.9123C215.459 44.9123 217.25 46.7032 217.25 48.9123L217.25 62.4211L217.25 73.4737C217.25 75.6829 215.459 77.4737 213.25 77.4737L194.75 77.4737L194.75 79L194.75 80.5264Z" fill="white"/>
<path d="M194.75 80.5264L192.75 80.5264C192.75 81.6309 193.645 82.5264 194.75 82.5264L194.75 80.5264ZM209.25 109.088L211.25 109.088L209.25 109.088ZM209.25 99.579L211.25 99.579C211.25 98.4744 210.355 97.579 209.25 97.579L209.25 99.579ZM205.38 99.579L205.38 97.579C204.651 97.579 203.979 97.9762 203.628 98.6154C203.276 99.2546 203.301 100.034 203.691 100.65L205.38 99.579ZM204.853 104.523L203.427 103.121L204.853 104.523ZM199.197 104.573L200.598 103.146L200.598 103.146L199.197 104.573ZM198.844 104.226L197.443 105.653L197.443 105.653L198.844 104.226ZM203.75 91.579L203.75 93.579L203.75 91.579ZM209.25 91.579L209.25 93.579C209.78 93.579 210.289 93.3683 210.664 92.9932C211.039 92.6181 211.25 92.1094 211.25 91.579L209.25 91.579ZM209.25 88.5264L211.25 88.5264C211.25 87.4218 210.355 86.5264 209.25 86.5264L209.25 88.5264ZM186.75 81.5264L188.75 81.5264L186.75 81.5264ZM186.75 79L184.75 79L186.75 79ZM186.75 76.4737L188.75 76.4737L186.75 76.4737ZM209.25 69.4737L209.25 71.4737C209.78 71.4737 210.289 71.263 210.664 70.8879C211.039 70.5129 211.25 70.0042 211.25 69.4737L209.25 69.4737ZM209.25 66.4211L211.25 66.4211C211.25 65.3165 210.355 64.4211 209.25 64.4211L209.25 66.4211ZM198.844 53.7737L200.246 55.2004L200.246 55.2004L198.844 53.7737ZM199.197 53.4274L197.795 52.0007L197.795 52.0007L199.197 53.4274ZM204.853 53.4775L206.28 52.0758L206.28 52.0758L204.853 53.4775ZM205.38 58.4211L203.691 57.3497C203.301 57.9657 203.276 58.7455 203.628 59.3847C203.979 60.0239 204.651 60.4211 205.38 60.4211L205.38 58.4211ZM209.25 58.4211L209.25 60.4211C210.355 60.4211 211.25 59.5257 211.25 58.4211L209.25 58.4211ZM209.25 48.9123L211.25 48.9123L209.25 48.9123ZM194.75 77.4737L194.75 75.4737C193.645 75.4737 192.75 76.3692 192.75 77.4737L194.75 77.4737ZM213.25 78.5264L194.75 78.5264L194.75 82.5264L213.25 82.5264L213.25 78.5264ZM219.25 84.5264C219.25 81.2127 216.564 78.5264 213.25 78.5264L213.25 82.5264C214.355 82.5264 215.25 83.4218 215.25 84.5264L219.25 84.5264ZM219.25 95.579L219.25 84.5264L215.25 84.5264L215.25 95.579L219.25 95.579ZM219.25 109.088L219.25 95.579L215.25 95.579L215.25 109.088L219.25 109.088ZM213.25 115.088C216.564 115.088 219.25 112.401 219.25 109.088L215.25 109.088C215.25 110.192 214.355 111.088 213.25 111.088L213.25 115.088ZM207.25 109.088C207.25 112.401 209.936 115.088 213.25 115.088L213.25 111.088C212.145 111.088 211.25 110.192 211.25 109.088L207.25 109.088ZM207.25 99.579L207.25 109.088L211.25 109.088L211.25 99.579L207.25 99.579ZM205.38 101.579L209.25 101.579L209.25 97.579L205.38 97.579L205.38 101.579ZM206.28 105.924C208.275 103.894 208.53 100.81 207.069 98.5076L203.691 100.65C204.178 101.418 204.089 102.447 203.427 103.121L206.28 105.924ZM197.795 105.999C200.159 108.322 203.958 108.288 206.28 105.924L203.427 103.121C202.653 103.909 201.386 103.92 200.598 103.146L197.795 105.999ZM197.443 105.653L197.795 105.999L200.598 103.146L200.246 102.8L197.443 105.653ZM194.75 99.2331C194.75 101.648 195.72 103.961 197.443 105.653L200.246 102.8C199.289 101.86 198.75 100.574 198.75 99.2331L194.75 99.2331ZM194.75 98.579L194.75 99.2331L198.75 99.2331L198.75 98.579L194.75 98.579ZM203.75 89.579C198.779 89.579 194.75 93.6084 194.75 98.579L198.75 98.579C198.75 95.8176 200.989 93.579 203.75 93.579L203.75 89.579ZM209.25 89.579L203.75 89.579L203.75 93.579L209.25 93.579L209.25 89.579ZM207.25 88.5264L207.25 91.579L211.25 91.579L211.25 88.5264L207.25 88.5264ZM193.75 90.5264L209.25 90.5264L209.25 86.5264L193.75 86.5264L193.75 90.5264ZM184.75 81.5264C184.75 86.4969 188.779 90.5264 193.75 90.5264L193.75 86.5264C190.989 86.5264 188.75 84.2878 188.75 81.5264L184.75 81.5264ZM184.75 79L184.75 81.5264L188.75 81.5264L188.75 79L184.75 79ZM184.75 76.4737L184.75 79L188.75 79L188.75 76.4737L184.75 76.4737ZM193.75 67.4737C188.779 67.4737 184.75 71.5032 184.75 76.4737L188.75 76.4737C188.75 73.7123 190.989 71.4737 193.75 71.4737L193.75 67.4737ZM209.25 67.4737L193.75 67.4737L193.75 71.4737L209.25 71.4737L209.25 67.4737ZM207.25 66.4211L207.25 69.4737L211.25 69.4737L211.25 66.4211L207.25 66.4211ZM203.75 68.4211L209.25 68.4211L209.25 64.4211L203.75 64.4211L203.75 68.4211ZM194.75 59.4211C194.75 64.3917 198.779 68.4211 203.75 68.4211L203.75 64.4211C200.989 64.4211 198.75 62.1825 198.75 59.4211L194.75 59.4211ZM194.75 58.767L194.75 59.4211L198.75 59.4211L198.75 58.767L194.75 58.767ZM197.443 52.347C195.72 54.0392 194.75 56.3525 194.75 58.767L198.75 58.767C198.75 57.4256 199.289 56.1405 200.246 55.2004L197.443 52.347ZM197.795 52.0007L197.443 52.347L200.246 55.2004L200.598 54.8541L197.795 52.0007ZM206.28 52.0758C203.958 49.712 200.159 49.6784 197.795 52.0007L200.598 54.8541C201.386 54.08 202.653 54.0912 203.427 54.8791L206.28 52.0758ZM207.069 59.4925C208.53 57.1903 208.275 54.106 206.28 52.0758L203.427 54.8791C204.089 55.5534 204.178 56.5825 203.691 57.3497L207.069 59.4925ZM209.25 56.4211L205.38 56.4211L205.38 60.4211L209.25 60.4211L209.25 56.4211ZM207.25 48.9123L207.25 58.4211L211.25 58.4211L211.25 48.9123L207.25 48.9123ZM213.25 42.9123C209.936 42.9123 207.25 45.5986 207.25 48.9123L211.25 48.9123C211.25 47.8078 212.145 46.9123 213.25 46.9123L213.25 42.9123ZM219.25 48.9123C219.25 45.5986 216.564 42.9123 213.25 42.9123L213.25 46.9123C214.355 46.9123 215.25 47.8078 215.25 48.9123L219.25 48.9123ZM219.25 62.4211L219.25 48.9123L215.25 48.9123L215.25 62.4211L219.25 62.4211ZM219.25 73.4737L219.25 62.4211L215.25 62.4211L215.25 73.4737L219.25 73.4737ZM213.25 79.4737C216.564 79.4737 219.25 76.7874 219.25 73.4737L215.25 73.4737C215.25 74.5783 214.355 75.4737 213.25 75.4737L213.25 79.4737ZM194.75 79.4737L213.25 79.4737L213.25 75.4737L194.75 75.4737L194.75 79.4737ZM196.75 79L196.75 77.4737L192.75 77.4737L192.75 79L196.75 79ZM196.75 80.5264L196.75 79L192.75 79L192.75 80.5264L196.75 80.5264Z" fill="white"/>
<path fill-rule="evenodd" clip-rule="evenodd" d="M249.25 80.5264L230.75 80.5264C228.541 80.5264 226.75 82.3172 226.75 84.5264L226.75 95.579L226.75 109.088C226.75 111.297 228.541 113.088 230.75 113.088C232.959 113.088 234.75 111.297 234.75 109.088L234.75 99.579L238.62 99.579C237.646 101.114 237.818 103.17 239.147 104.523C240.695 106.098 243.227 106.121 244.803 104.573L245.156 104.226C246.495 102.91 247.25 101.111 247.25 99.2331L247.25 98.579C247.25 94.713 244.116 91.579 240.25 91.579L234.75 91.579L234.75 88.5264L250.25 88.5264C254.116 88.5264 257.25 85.3924 257.25 81.5264L257.25 79L257.25 76.4737C257.25 72.6077 254.116 69.4737 250.25 69.4737L234.75 69.4737L234.75 66.4211L240.25 66.4211C244.116 66.4211 247.25 63.2871 247.25 59.4211L247.25 58.767C247.25 56.8891 246.495 55.0898 245.156 53.7737L244.803 53.4274C243.227 51.8792 240.695 51.9016 239.147 53.4775C237.818 54.8297 237.646 56.8864 238.62 58.4211L234.75 58.4211L234.75 48.9123C234.75 46.7032 232.959 44.9123 230.75 44.9123C228.541 44.9123 226.75 46.7032 226.75 48.9123L226.75 62.4211L226.75 73.4737C226.75 75.6829 228.541 77.4737 230.75 77.4737L249.25 77.4737L249.25 79L249.25 80.5264Z" fill="white"/>
<path d="M230.75 80.5264L230.75 82.5264L230.75 80.5264ZM249.25 80.5264L251.25 80.5264C251.25 81.6309 250.355 82.5264 249.25 82.5264L249.25 80.5264ZM226.75 95.579L228.75 95.579L226.75 95.579ZM226.75 109.088L224.75 109.088L226.75 109.088ZM234.75 99.579L232.75 99.579C232.75 98.4744 233.645 97.579 234.75 97.579L234.75 99.579ZM238.62 99.579L238.62 97.579C239.349 97.579 240.021 97.9762 240.372 98.6154C240.724 99.2546 240.699 100.034 240.309 100.65L238.62 99.579ZM239.147 104.523L240.573 103.121L239.147 104.523ZM244.803 104.573L246.205 105.999L246.205 105.999L244.803 104.573ZM245.156 104.226L243.754 102.8L243.754 102.8L245.156 104.226ZM247.25 99.2331L245.25 99.2331L247.25 99.2331ZM247.25 98.579L249.25 98.579L247.25 98.579ZM240.25 91.579L240.25 89.579L240.25 91.579ZM234.75 91.579L234.75 93.579C234.22 93.579 233.711 93.3683 233.336 92.9932C232.961 92.6181 232.75 92.1094 232.75 91.579L234.75 91.579ZM234.75 88.5264L232.75 88.5264C232.75 87.4218 233.645 86.5264 234.75 86.5264L234.75 88.5264ZM250.25 88.5264L250.25 86.5264L250.25 88.5264ZM257.25 81.5264L259.25 81.5264L257.25 81.5264ZM257.25 79L255.25 79L257.25 79ZM257.25 76.4737L259.25 76.4737L257.25 76.4737ZM250.25 69.4737L250.25 67.4737L250.25 69.4737ZM234.75 69.4737L234.75 71.4737C234.22 71.4737 233.711 71.263 233.336 70.8879C232.961 70.5129 232.75 70.0042 232.75 69.4737L234.75 69.4737ZM234.75 66.4211L232.75 66.4211C232.75 65.3165 233.645 64.4211 234.75 64.4211L234.75 66.4211ZM240.25 66.4211L240.25 64.4211L240.25 66.4211ZM245.156 53.7737L243.754 55.2004L243.754 55.2004L245.156 53.7737ZM244.803 53.4274L246.205 52.0007L246.205 52.0007L244.803 53.4274ZM239.147 53.4775L237.72 52.0758L239.147 53.4775ZM238.62 58.4211L240.309 57.3497C240.699 57.9657 240.724 58.7455 240.372 59.3847C240.021 60.0239 239.349 60.4211 238.62 60.4211L238.62 58.4211ZM234.75 58.4211L234.75 60.4211C234.22 60.4211 233.711 60.2104 233.336 59.8353C232.961 59.4602 232.75 58.9515 232.75 58.4211L234.75 58.4211ZM234.75 48.9123L232.75 48.9123L234.75 48.9123ZM230.75 77.4737L230.75 79.4737L230.75 77.4737ZM249.25 77.4737L249.25 75.4737C249.78 75.4737 250.289 75.6844 250.664 76.0595C251.039 76.4346 251.25 76.9433 251.25 77.4737L249.25 77.4737ZM230.75 78.5264L249.25 78.5264L249.25 82.5264L230.75 82.5264L230.75 78.5264ZM224.75 84.5264C224.75 81.2127 227.436 78.5264 230.75 78.5264L230.75 82.5264C229.645 82.5264 228.75 83.4218 228.75 84.5264L224.75 84.5264ZM224.75 95.579L224.75 84.5264L228.75 84.5264L228.75 95.579L224.75 95.579ZM224.75 109.088L224.75 95.579L228.75 95.579L228.75 109.088L224.75 109.088ZM230.75 115.088C227.436 115.088 224.75 112.401 224.75 109.088L228.75 109.088C228.75 110.192 229.645 111.088 230.75 111.088L230.75 115.088ZM236.75 109.088C236.75 112.401 234.064 115.088 230.75 115.088L230.75 111.088C231.855 111.088 232.75 110.192 232.75 109.088L236.75 109.088ZM236.75 99.579L236.75 109.088L232.75 109.088L232.75 99.579L236.75 99.579ZM238.62 101.579L234.75 101.579L234.75 97.579L238.62 97.579L238.62 101.579ZM237.72 105.924C235.725 103.894 235.47 100.81 236.931 98.5076L240.309 100.65C239.822 101.418 239.911 102.447 240.573 103.121L237.72 105.924ZM246.205 105.999C243.841 108.322 240.042 108.288 237.72 105.924L240.573 103.121C241.347 103.909 242.614 103.92 243.402 103.146L246.205 105.999ZM246.557 105.653L246.205 105.999L243.402 103.146L243.754 102.8L246.557 105.653ZM249.25 99.2331C249.25 101.648 248.28 103.961 246.557 105.653L243.754 102.8C244.711 101.86 245.25 100.574 245.25 99.2331L249.25 99.2331ZM249.25 98.579L249.25 99.2331L245.25 99.2331L245.25 98.579L249.25 98.579ZM240.25 89.579C245.221 89.579 249.25 93.6084 249.25 98.579L245.25 98.579C245.25 95.8176 243.011 93.579 240.25 93.579L240.25 89.579ZM234.75 89.579L240.25 89.579L240.25 93.579L234.75 93.579L234.75 89.579ZM236.75 88.5264L236.75 91.579L232.75 91.579L232.75 88.5264L236.75 88.5264ZM250.25 90.5264L234.75 90.5264L234.75 86.5264L250.25 86.5264L250.25 90.5264ZM259.25 81.5264C259.25 86.4969 255.221 90.5264 250.25 90.5264L250.25 86.5264C253.011 86.5264 255.25 84.2878 255.25 81.5264L259.25 81.5264ZM259.25 79L259.25 81.5264L255.25 81.5264L255.25 79L259.25 79ZM259.25 76.4737L259.25 79L255.25 79L255.25 76.4737L259.25 76.4737ZM250.25 67.4737C255.221 67.4737 259.25 71.5032 259.25 76.4737L255.25 76.4737C255.25 73.7123 253.011 71.4737 250.25 71.4737L250.25 67.4737ZM234.75 67.4737L250.25 67.4737L250.25 71.4737L234.75 71.4737L234.75 67.4737ZM236.75 66.4211L236.75 69.4737L232.75 69.4737L232.75 66.4211L236.75 66.4211ZM240.25 68.4211L234.75 68.4211L234.75 64.4211L240.25 64.4211L240.25 68.4211ZM249.25 59.4211C249.25 64.3917 245.221 68.4211 240.25 68.4211L240.25 64.4211C243.011 64.4211 245.25 62.1825 245.25 59.4211L249.25 59.4211ZM249.25 58.767L249.25 59.4211L245.25 59.4211L245.25 58.767L249.25 58.767ZM246.557 52.347C248.28 54.0392 249.25 56.3525 249.25 58.767L245.25 58.767C245.25 57.4256 244.711 56.1405 243.754 55.2004L246.557 52.347ZM246.205 52.0007L246.557 52.347L243.754 55.2004L243.402 54.8541L246.205 52.0007ZM237.72 52.0758C240.042 49.712 243.841 49.6784 246.205 52.0007L243.402 54.8541C242.614 54.08 241.347 54.0912 240.573 54.8791L237.72 52.0758ZM236.931 59.4925C235.47 57.1903 235.725 54.106 237.72 52.0758L240.573 54.8791C239.911 55.5534 239.822 56.5825 240.309 57.3497L236.931 59.4925ZM234.75 56.4211L238.62 56.4211L238.62 60.4211L234.75 60.4211L234.75 56.4211ZM236.75 48.9123L236.75 58.4211L232.75 58.4211L232.75 48.9123L236.75 48.9123ZM230.75 42.9123C234.064 42.9123 236.75 45.5986 236.75 48.9123L232.75 48.9123C232.75 47.8078 231.855 46.9123 230.75 46.9123L230.75 42.9123ZM224.75 48.9123C224.75 45.5986 227.436 42.9123 230.75 42.9123L230.75 46.9123C229.645 46.9123 228.75 47.8078 228.75 48.9123L224.75 48.9123ZM224.75 62.4211L224.75 48.9123L228.75 48.9123L228.75 62.4211L224.75 62.4211ZM224.75 73.4737L224.75 62.4211L228.75 62.4211L228.75 73.4737L224.75 73.4737ZM230.75 79.4737C227.436 79.4737 224.75 76.7874 224.75 73.4737L228.75 73.4737C228.75 74.5783 229.645 75.4737 230.75 75.4737L230.75 79.4737ZM249.25 79.4737L230.75 79.4737L230.75 75.4737L249.25 75.4737L249.25 79.4737ZM247.25 79L247.25 77.4737L251.25 77.4737L251.25 79L247.25 79ZM247.25 80.5264L247.25 79L251.25 79L251.25 80.5264L247.25 80.5264Z" fill="white"/>
<path d="M45 194.692C45 188.939 46.9315 183.422 50.3696 179.354C53.8077 175.285 58.4707 173 63.3329 173C67.5282 173 71.5752 174.701 74.8151 177.781C74.8444 177.821 74.8752 177.86 74.9073 177.898L91.5744 197.62C92.3415 198.527 93.5852 198.527 94.3523 197.62C95.1194 196.712 95.1194 195.24 94.3523 194.333L82.6984 180.543L83.7037 179.354C87.1418 175.286 91.8049 173 96.6671 173C101.529 173 106.192 175.286 109.63 179.354C113.068 183.422 115 188.939 115 194.693C115 200.446 113.068 205.963 109.63 210.031L81.852 242.9C80.8292 244.11 79.1708 244.11 78.148 242.9L68.8885 231.944L68.8083 231.849L50.3696 210.031C46.9315 205.963 45 200.446 45 194.692Z" fill="white"/>
<path fill-rule="evenodd" clip-rule="evenodd" d="M228 299.5V295.5C228 294.395 227.105 293.5 226 293.5H218C216.895 293.5 216 294.395 216 295.5V299.5V308.85V309.454V310.151V310.848V311.545V312.149V312.707V313.45V313.961C216 314.259 215.759 314.5 215.461 314.5H201H197C195.895 314.5 195 315.395 195 316.5L195 324.5C195 325.605 195.895 326.5 197 326.5H201H215.668C215.851 326.5 216 326.649 216 326.832V327.203V327.854V328.504V329.109V329.573V362.5V366.5C216 367.605 216.895 368.5 218 368.5H226C227.105 368.5 228 367.605 228 366.5V362.5V329.573V329.109V328.504V327.854V327.203V326.832C228 326.649 228.149 326.5 228.332 326.5H243H247C248.105 326.5 249 325.605 249 324.5V316.5C249 315.395 248.105 314.5 247 314.5H243H228.539C228.241 314.5 228 314.259 228 313.961V313.45V312.707V312.149V311.545V310.848V310.151V309.454V308.85V299.5Z" fill="white"/>
<path d="M226.5 295.5V299.5H229.5V295.5H226.5ZM218 295H226V292H218V295ZM217.5 299.5V295.5H214.5V299.5H217.5ZM217.5 308.85V299.5H214.5V308.85H217.5ZM217.5 309.454V308.85H214.5V309.454H217.5ZM217.5 310.151V309.454H214.5V310.151H217.5ZM217.5 310.848V310.151H214.5V310.848H217.5ZM217.5 311.545V310.848H214.5V311.545H217.5ZM217.5 312.149V311.545H214.5V312.149H217.5ZM217.5 312.707V312.149H214.5V312.707H217.5ZM217.5 313.45V312.707H214.5V313.45H217.5ZM217.5 313.961V313.45H214.5V313.961H217.5ZM201 316H215.461V313H201V316ZM197 316H201V313H197V316ZM196.5 324.5L196.5 316.5H193.5L193.5 324.5H196.5ZM201 325H197V328H201V325ZM215.668 325H201V328H215.668V325ZM217.5 327.203V326.832H214.5V327.203H217.5ZM217.5 327.854V327.203H214.5V327.854H217.5ZM217.5 328.504V327.854H214.5V328.504H217.5ZM217.5 329.109V328.504H214.5V329.109H217.5ZM217.5 329.573V329.109H214.5V329.573H217.5ZM217.5 362.5V329.573H214.5V362.5H217.5ZM217.5 366.5V362.5H214.5V366.5H217.5ZM226 367H218V370H226V367ZM226.5 362.5V366.5H229.5V362.5H226.5ZM226.5 329.573V362.5H229.5V329.573H226.5ZM226.5 329.109V329.573H229.5V329.109H226.5ZM226.5 328.504V329.109H229.5V328.504H226.5ZM226.5 327.854V328.504H229.5V327.854H226.5ZM226.5 327.203V327.854H229.5V327.203H226.5ZM226.5 326.832V327.203H229.5V326.832H226.5ZM243 325H228.332V328H243V325ZM247 325H243V328H247V325ZM247.5 316.5V324.5H250.5V316.5H247.5ZM243 316H247V313H243V316ZM228.539 316H243V313H228.539V316ZM226.5 313.45V313.961H229.5V313.45H226.5ZM226.5 312.707V313.45H229.5V312.707H226.5ZM226.5 312.149V312.707H229.5V312.149H226.5ZM226.5 311.545V312.149H229.5V311.545H226.5ZM226.5 310.848V311.545H229.5V310.848H226.5ZM226.5 310.151V310.848H229.5V310.151H226.5ZM226.5 309.454V310.151H229.5V309.454H226.5ZM226.5 308.85V309.454H229.5V308.85H226.5ZM226.5 299.5V308.85H229.5V299.5H226.5ZM228.539 313C229.07 313 229.5 313.43 229.5 313.961H226.5C226.5 315.087 227.413 316 228.539 316V313ZM215.668 328C215.023 328 214.5 327.477 214.5 326.832H217.5C217.5 325.82 216.68 325 215.668 325V328ZM197 313C195.067 313 193.5 314.567 193.5 316.5H196.5C196.5 316.224 196.724 316 197 316V313ZM250.5 316.5C250.5 314.567 248.933 313 247 313V316C247.276 316 247.5 316.224 247.5 316.5H250.5ZM226 370C227.933 370 229.5 368.433 229.5 366.5H226.5C226.5 366.776 226.276 367 226 367V370ZM193.5 324.5C193.5 326.433 195.067 328 197 328V325C196.724 325 196.5 324.776 196.5 324.5H193.5ZM229.5 326.832C229.5 327.477 228.977 328 228.332 328V325C227.32 325 226.5 325.82 226.5 326.832H229.5ZM214.5 313.961C214.5 313.43 214.93 313 215.461 313V316C216.587 316 217.5 315.087 217.5 313.961H214.5ZM218 292C216.067 292 214.5 293.567 214.5 295.5H217.5C217.5 295.224 217.724 295 218 295V292ZM247 328C248.933 328 250.5 326.433 250.5 324.5H247.5C247.5 324.776 247.276 325 247 325V328ZM214.5 366.5C214.5 368.433 216.067 370 218 370V367C217.724 367 217.5 366.776 217.5 366.5H214.5ZM229.5 295.5C229.5 293.567 227.933 292 226 292V295C226.276 295 226.5 295.224 226.5 295.5H229.5Z" fill="white"/>
</svg>
