<svg width="727" height="160" viewBox="0 0 727 160" fill="none" xmlns="http://www.w3.org/2000/svg">
<ellipse rx="79.5" ry="79" transform="matrix(-1 0 0 1 79.5 80)" fill="#3AB54B"/>
<circle r="79.5" transform="matrix(-1 0 0 1 373.5 79.5)" fill="#8DC73F"/>
<circle r="79.5" transform="matrix(-1 0 0 1 647.5 80.5)" fill="#D6DF1F"/>
<path fill-rule="evenodd" clip-rule="evenodd" d="M52.75 81.5262L71.25 81.5262C73.4591 81.5262 75.25 83.3171 75.25 85.5262L75.25 96.5789L75.25 110.088C75.25 112.297 73.4591 114.088 71.25 114.088C69.0409 114.088 67.25 112.297 67.25 110.088L67.25 100.579L63.3802 100.579C64.3539 102.114 64.1819 104.17 62.8533 105.523C61.3051 107.098 58.7726 107.121 57.1967 105.573L56.8442 105.226C55.5046 103.91 54.75 102.111 54.75 100.233L54.75 99.5789C54.75 95.7129 57.884 92.5789 61.75 92.5789L67.25 92.5789L67.25 89.5262L51.75 89.5262C47.884 89.5262 44.75 86.3922 44.75 82.5262L44.75 79.9999L44.75 77.4736C44.75 73.6076 47.884 70.4736 51.75 70.4736L67.25 70.4736L67.25 67.421L61.75 67.421C57.884 67.421 54.75 64.287 54.75 60.421L54.75 59.7669C54.75 57.8889 55.5046 56.0897 56.8442 54.7736L57.1967 54.4273C58.7726 52.8791 61.3051 52.9015 62.8533 54.4773C64.1819 55.8296 64.3539 57.8863 63.3802 59.421L67.25 59.421L67.25 49.9122C67.25 47.7031 69.0409 45.9122 71.25 45.9122C73.4591 45.9122 75.25 47.7031 75.25 49.9122L75.25 63.421L75.25 74.4736C75.25 76.6827 73.4591 78.4736 71.25 78.4736L52.75 78.4736L52.75 79.9999L52.75 81.5262Z" fill="white"/>
<path d="M52.75 81.5262L50.75 81.5262C50.75 82.6308 51.6454 83.5262 52.75 83.5262L52.75 81.5262ZM75.25 85.5262L77.25 85.5262L75.25 85.5262ZM75.25 96.5789L73.25 96.5789L75.25 96.5789ZM67.25 100.579L69.25 100.579C69.25 100.048 69.0393 99.5397 68.6642 99.1647C68.2891 98.7896 67.7804 98.5789 67.25 98.5789L67.25 100.579ZM63.3802 100.579L63.3802 98.5789C62.6508 98.5789 61.9792 98.976 61.6277 99.6152C61.2762 100.254 61.3007 101.034 61.6914 101.65L63.3802 100.579ZM62.8533 105.523L61.4267 104.121L62.8533 105.523ZM57.1967 105.573L58.5984 104.146L58.5984 104.146L57.1967 105.573ZM56.8442 105.226L55.4426 106.653L55.4426 106.653L56.8442 105.226ZM54.75 100.233L56.75 100.233L54.75 100.233ZM54.75 99.5789L52.75 99.5789L54.75 99.5789ZM61.75 92.5789L61.75 94.5789L61.75 92.5789ZM67.25 92.5789L67.25 94.5789C67.7804 94.5789 68.2891 94.3682 68.6642 93.9931C69.0393 93.618 69.25 93.1093 69.25 92.5789L67.25 92.5789ZM67.25 89.5262L69.25 89.5262C69.25 88.4217 68.3546 87.5262 67.25 87.5262L67.25 89.5262ZM44.75 82.5262L46.75 82.5262L44.75 82.5262ZM44.75 79.9999L42.75 79.9999L44.75 79.9999ZM44.75 77.4736L46.75 77.4736L44.75 77.4736ZM67.25 70.4736L67.25 72.4736C67.7804 72.4736 68.2891 72.2629 68.6642 71.8878C69.0393 71.5128 69.25 71.004 69.25 70.4736L67.25 70.4736ZM67.25 67.421L69.25 67.421C69.25 66.3164 68.3546 65.421 67.25 65.421L67.25 67.421ZM54.75 60.421L56.75 60.421L54.75 60.421ZM54.75 59.7669L52.75 59.7669L54.75 59.7669ZM56.8442 54.7736L58.2459 56.2002L58.2459 56.2002L56.8442 54.7736ZM57.1967 54.4273L55.7951 53.0006L55.7951 53.0006L57.1967 54.4273ZM62.8533 54.4773L64.28 53.0757L64.28 53.0757L62.8533 54.4773ZM63.3802 59.421L61.6914 58.3496C61.3007 58.9655 61.2762 59.7454 61.6277 60.3846C61.9792 61.0238 62.6508 61.421 63.3802 61.421L63.3802 59.421ZM67.25 59.421L67.25 61.421C68.3546 61.421 69.25 60.5255 69.25 59.421L67.25 59.421ZM67.25 49.9122L69.25 49.9122L67.25 49.9122ZM75.25 63.421L77.25 63.421L75.25 63.421ZM75.25 74.4736L73.25 74.4736L75.25 74.4736ZM52.75 78.4736L52.75 76.4736C51.6454 76.4736 50.75 77.369 50.75 78.4736L52.75 78.4736ZM71.25 79.5262L52.75 79.5262L52.75 83.5262L71.25 83.5262L71.25 79.5262ZM77.25 85.5262C77.25 82.2125 74.5637 79.5262 71.25 79.5262L71.25 83.5262C72.3546 83.5262 73.25 84.4217 73.25 85.5262L77.25 85.5262ZM77.25 96.5789L77.25 85.5262L73.25 85.5262L73.25 96.5789L77.25 96.5789ZM77.25 110.088L77.25 96.5789L73.25 96.5789L73.25 110.088L77.25 110.088ZM71.25 116.088C74.5637 116.088 77.25 113.401 77.25 110.088L73.25 110.088C73.25 111.192 72.3546 112.088 71.25 112.088L71.25 116.088ZM65.25 110.088C65.25 113.401 67.9363 116.088 71.25 116.088L71.25 112.088C70.1454 112.088 69.25 111.192 69.25 110.088L65.25 110.088ZM65.25 100.579L65.25 110.088L69.25 110.088L69.25 100.579L65.25 100.579ZM63.3802 102.579L67.25 102.579L67.25 98.5789L63.3802 98.5789L63.3802 102.579ZM64.28 106.924C66.2746 104.894 66.5296 101.81 65.0691 99.5075L61.6914 101.65C62.1782 102.417 62.0891 103.447 61.4267 104.121L64.28 106.924ZM55.7951 106.999C58.1589 109.322 61.9577 109.288 64.28 106.924L61.4267 104.121C60.6526 104.909 59.3863 104.92 58.5984 104.146L55.7951 106.999ZM55.4426 106.653L55.7951 106.999L58.5984 104.146L58.2459 103.8L55.4426 106.653ZM52.75 100.233C52.75 102.647 53.7202 104.961 55.4426 106.653L58.2459 103.8C57.289 102.86 56.75 101.574 56.75 100.233L52.75 100.233ZM52.75 99.5789L52.75 100.233L56.75 100.233L56.75 99.5789L52.75 99.5789ZM61.75 90.5789C56.7794 90.5789 52.75 94.6083 52.75 99.5789L56.75 99.5789C56.75 96.8175 58.9886 94.5789 61.75 94.5789L61.75 90.5789ZM67.25 90.5789L61.75 90.5789L61.75 94.5789L67.25 94.5789L67.25 90.5789ZM65.25 89.5262L65.25 92.5789L69.25 92.5789L69.25 89.5262L65.25 89.5262ZM51.75 91.5262L67.25 91.5262L67.25 87.5262L51.75 87.5262L51.75 91.5262ZM42.75 82.5262C42.75 87.4968 46.7794 91.5262 51.75 91.5262L51.75 87.5262C48.9886 87.5262 46.75 85.2877 46.75 82.5262L42.75 82.5262ZM42.75 79.9999L42.75 82.5262L46.75 82.5262L46.75 79.9999L42.75 79.9999ZM42.75 77.4736L42.75 79.9999L46.75 79.9999L46.75 77.4736L42.75 77.4736ZM51.75 68.4736C46.7794 68.4736 42.75 72.503 42.75 77.4736L46.75 77.4736C46.75 74.7122 48.9886 72.4736 51.75 72.4736L51.75 68.4736ZM67.25 68.4736L51.75 68.4736L51.75 72.4736L67.25 72.4736L67.25 68.4736ZM65.25 67.421L65.25 70.4736L69.25 70.4736L69.25 67.421L65.25 67.421ZM61.75 69.421L67.25 69.421L67.25 65.421L61.75 65.421L61.75 69.421ZM52.75 60.421C52.75 65.3915 56.7794 69.421 61.75 69.421L61.75 65.421C58.9886 65.421 56.75 63.1824 56.75 60.421L52.75 60.421ZM52.75 59.7669L52.75 60.421L56.75 60.421L56.75 59.7669L52.75 59.7669ZM55.4426 53.3469C53.7202 55.0391 52.75 57.3524 52.75 59.7669L56.75 59.7669C56.75 58.4255 57.289 57.1403 58.2459 56.2002L55.4426 53.3469ZM55.7951 53.0006L55.4426 53.3469L58.2459 56.2002L58.5984 55.854L55.7951 53.0006ZM64.28 53.0757C61.9577 50.7119 58.1589 50.6783 55.7951 53.0006L58.5984 55.854C59.3863 55.0799 60.6526 55.0911 61.4267 55.879L64.28 53.0757ZM65.0691 60.4924C66.5296 58.1902 66.2746 55.1059 64.28 53.0757L61.4267 55.879C62.0891 56.5533 62.1782 57.5824 61.6914 58.3496L65.0691 60.4924ZM67.25 57.421L63.3802 57.421L63.3802 61.421L67.25 61.421L67.25 57.421ZM65.25 49.9122L65.25 59.421L69.25 59.421L69.25 49.9122L65.25 49.9122ZM71.25 43.9122C67.9363 43.9122 65.25 46.5985 65.25 49.9122L69.25 49.9122C69.25 48.8076 70.1454 47.9122 71.25 47.9122L71.25 43.9122ZM77.25 49.9122C77.25 46.5985 74.5637 43.9122 71.25 43.9122L71.25 47.9122C72.3546 47.9122 73.25 48.8076 73.25 49.9122L77.25 49.9122ZM77.25 63.421L77.25 49.9122L73.25 49.9122L73.25 63.421L77.25 63.421ZM77.25 74.4736L77.25 63.421L73.25 63.421L73.25 74.4736L77.25 74.4736ZM71.25 80.4736C74.5637 80.4736 77.25 77.7873 77.25 74.4736L73.25 74.4736C73.25 75.5782 72.3546 76.4736 71.25 76.4736L71.25 80.4736ZM52.75 80.4736L71.25 80.4736L71.25 76.4736L52.75 76.4736L52.75 80.4736ZM54.75 79.9999L54.75 78.4736L50.75 78.4736L50.75 79.9999L54.75 79.9999ZM54.75 81.5262L54.75 79.9999L50.75 79.9999L50.75 81.5262L54.75 81.5262Z" fill="white"/>
<path fill-rule="evenodd" clip-rule="evenodd" d="M107.25 81.5262L88.75 81.5262C86.5409 81.5262 84.75 83.3171 84.75 85.5262L84.75 96.5789L84.75 110.088C84.75 112.297 86.5409 114.088 88.75 114.088C90.9591 114.088 92.75 112.297 92.75 110.088L92.75 100.579L96.6198 100.579C95.6461 102.114 95.8181 104.17 97.1467 105.523C98.6949 107.098 101.227 107.121 102.803 105.573L103.156 105.226C104.495 103.91 105.25 102.111 105.25 100.233L105.25 99.5789C105.25 95.7129 102.116 92.5789 98.25 92.5789L92.75 92.5789L92.75 89.5262L108.25 89.5262C112.116 89.5262 115.25 86.3922 115.25 82.5262L115.25 79.9999L115.25 77.4736C115.25 73.6076 112.116 70.4736 108.25 70.4736L92.75 70.4736L92.75 67.421L98.25 67.421C102.116 67.421 105.25 64.287 105.25 60.421L105.25 59.7669C105.25 57.8889 104.495 56.0897 103.156 54.7736L102.803 54.4273C101.227 52.8791 98.6949 52.9015 97.1467 54.4773C95.8181 55.8296 95.6461 57.8863 96.6198 59.421L92.75 59.421L92.75 49.9122C92.75 47.7031 90.9591 45.9122 88.75 45.9122C86.5409 45.9122 84.75 47.7031 84.75 49.9122L84.75 63.421L84.75 74.4736C84.75 76.6827 86.5409 78.4736 88.75 78.4736L107.25 78.4736L107.25 79.9999L107.25 81.5262Z" fill="white"/>
<path d="M88.75 81.5262L88.75 83.5262L88.75 81.5262ZM107.25 81.5262L109.25 81.5262C109.25 82.6308 108.355 83.5262 107.25 83.5262L107.25 81.5262ZM92.75 110.088L94.75 110.088L92.75 110.088ZM92.75 100.579L90.75 100.579C90.75 99.4743 91.6454 98.5789 92.75 98.5789L92.75 100.579ZM96.6198 100.579L96.6198 98.5789C97.3492 98.5789 98.0208 98.976 98.3723 99.6152C98.7238 100.254 98.6993 101.034 98.3086 101.65L96.6198 100.579ZM97.1467 105.523L98.5733 104.121L97.1467 105.523ZM102.803 105.573L104.205 106.999L104.205 106.999L102.803 105.573ZM103.156 105.226L101.754 103.8L101.754 103.8L103.156 105.226ZM92.75 92.5789L92.75 94.5789C91.6454 94.5789 90.75 93.6834 90.75 92.5789L92.75 92.5789ZM92.75 89.5262L90.75 89.5262C90.75 88.4217 91.6454 87.5262 92.75 87.5262L92.75 89.5262ZM92.75 70.4736L92.75 72.4736C91.6454 72.4736 90.75 71.5782 90.75 70.4736L92.75 70.4736ZM92.75 67.421L90.75 67.421C90.75 66.3164 91.6454 65.421 92.75 65.421L92.75 67.421ZM105.25 60.421L103.25 60.421L105.25 60.421ZM105.25 59.7669L107.25 59.7669L105.25 59.7669ZM103.156 54.7736L101.754 56.2002L101.754 56.2002L103.156 54.7736ZM102.803 54.4273L104.205 53.0006L104.205 53.0006L102.803 54.4273ZM97.1467 54.4773L95.72 53.0757L97.1467 54.4773ZM96.6198 59.421L98.3086 58.3496C98.6993 58.9655 98.7238 59.7454 98.3723 60.3846C98.0208 61.0238 97.3492 61.421 96.6198 61.421L96.6198 59.421ZM92.75 59.421L92.75 61.421C92.2196 61.421 91.7109 61.2103 91.3358 60.8352C90.9607 60.4601 90.75 59.9514 90.75 59.421L92.75 59.421ZM92.75 49.9122L90.75 49.9122L92.75 49.9122ZM88.75 78.4736L88.75 80.4736L88.75 78.4736ZM107.25 78.4736L107.25 76.4736C107.78 76.4736 108.289 76.6843 108.664 77.0594C109.039 77.4345 109.25 77.9432 109.25 78.4736L107.25 78.4736ZM88.75 79.5262L107.25 79.5262L107.25 83.5262L88.75 83.5262L88.75 79.5262ZM82.75 85.5262C82.75 82.2125 85.4363 79.5262 88.75 79.5262L88.75 83.5262C87.6454 83.5262 86.75 84.4217 86.75 85.5262L82.75 85.5262ZM82.75 96.5789L82.75 85.5262L86.75 85.5262L86.75 96.5789L82.75 96.5789ZM82.75 110.088L82.75 96.5789L86.75 96.5789L86.75 110.088L82.75 110.088ZM88.75 116.088C85.4363 116.088 82.75 113.401 82.75 110.088L86.75 110.088C86.75 111.192 87.6454 112.088 88.75 112.088L88.75 116.088ZM94.75 110.088C94.75 113.401 92.0637 116.088 88.75 116.088L88.75 112.088C89.8546 112.088 90.75 111.192 90.75 110.088L94.75 110.088ZM94.75 100.579L94.75 110.088L90.75 110.088L90.75 100.579L94.75 100.579ZM96.6198 102.579L92.75 102.579L92.75 98.5789L96.6198 98.5789L96.6198 102.579ZM95.72 106.924C93.7254 104.894 93.4704 101.81 94.9309 99.5075L98.3086 101.65C97.8218 102.417 97.9109 103.447 98.5733 104.121L95.72 106.924ZM104.205 106.999C101.841 109.322 98.0423 109.288 95.72 106.924L98.5733 104.121C99.3474 104.909 100.614 104.92 101.402 104.146L104.205 106.999ZM104.557 106.653L104.205 106.999L101.402 104.146L101.754 103.8L104.557 106.653ZM107.25 100.233C107.25 102.647 106.28 104.961 104.557 106.653L101.754 103.8C102.711 102.86 103.25 101.574 103.25 100.233L107.25 100.233ZM107.25 99.5789L107.25 100.233L103.25 100.233L103.25 99.5789L107.25 99.5789ZM98.25 90.5789C103.221 90.5789 107.25 94.6083 107.25 99.5789L103.25 99.5789C103.25 96.8175 101.011 94.5789 98.25 94.5789L98.25 90.5789ZM92.75 90.5789L98.25 90.5789L98.25 94.5789L92.75 94.5789L92.75 90.5789ZM94.75 89.5262L94.75 92.5789L90.75 92.5789L90.75 89.5262L94.75 89.5262ZM108.25 91.5262L92.75 91.5262L92.75 87.5262L108.25 87.5262L108.25 91.5262ZM117.25 82.5262C117.25 87.4968 113.221 91.5262 108.25 91.5262L108.25 87.5262C111.011 87.5262 113.25 85.2877 113.25 82.5262L117.25 82.5262ZM117.25 79.9999L117.25 82.5262L113.25 82.5262L113.25 79.9999L117.25 79.9999ZM117.25 77.4736L117.25 79.9999L113.25 79.9999L113.25 77.4736L117.25 77.4736ZM108.25 68.4736C113.221 68.4736 117.25 72.503 117.25 77.4736L113.25 77.4736C113.25 74.7122 111.011 72.4736 108.25 72.4736L108.25 68.4736ZM92.75 68.4736L108.25 68.4736L108.25 72.4736L92.75 72.4736L92.75 68.4736ZM94.75 67.421L94.75 70.4736L90.75 70.4736L90.75 67.421L94.75 67.421ZM98.25 69.421L92.75 69.421L92.75 65.421L98.25 65.421L98.25 69.421ZM107.25 60.421C107.25 65.3915 103.221 69.421 98.25 69.421L98.25 65.421C101.011 65.421 103.25 63.1824 103.25 60.421L107.25 60.421ZM107.25 59.7669L107.25 60.421L103.25 60.421L103.25 59.7669L107.25 59.7669ZM104.557 53.3469C106.28 55.0391 107.25 57.3524 107.25 59.7669L103.25 59.7669C103.25 58.4255 102.711 57.1403 101.754 56.2002L104.557 53.3469ZM104.205 53.0006L104.557 53.3469L101.754 56.2002L101.402 55.854L104.205 53.0006ZM95.72 53.0757C98.0423 50.7119 101.841 50.6783 104.205 53.0006L101.402 55.854C100.614 55.0799 99.3474 55.0911 98.5733 55.879L95.72 53.0757ZM94.9309 60.4924C93.4704 58.1902 93.7254 55.1059 95.72 53.0757L98.5733 55.879C97.9109 56.5533 97.8218 57.5824 98.3086 58.3496L94.9309 60.4924ZM92.75 57.421L96.6198 57.421L96.6198 61.421L92.75 61.421L92.75 57.421ZM94.75 49.9122L94.75 59.421L90.75 59.421L90.75 49.9122L94.75 49.9122ZM88.75 43.9122C92.0637 43.9122 94.75 46.5985 94.75 49.9122L90.75 49.9122C90.75 48.8076 89.8546 47.9122 88.75 47.9122L88.75 43.9122ZM82.75 49.9122C82.75 46.5985 85.4363 43.9122 88.75 43.9122L88.75 47.9122C87.6454 47.9122 86.75 48.8076 86.75 49.9122L82.75 49.9122ZM82.75 63.421L82.75 49.9122L86.75 49.9122L86.75 63.421L82.75 63.421ZM82.75 74.4736L82.75 63.421L86.75 63.421L86.75 74.4736L82.75 74.4736ZM88.75 80.4736C85.4363 80.4736 82.75 77.7873 82.75 74.4736L86.75 74.4736C86.75 75.5782 87.6454 76.4736 88.75 76.4736L88.75 80.4736ZM107.25 80.4736L88.75 80.4736L88.75 76.4736L107.25 76.4736L107.25 80.4736ZM105.25 79.9999L105.25 78.4736L109.25 78.4736L109.25 79.9999L105.25 79.9999ZM105.25 81.5262L105.25 79.9999L109.25 79.9999L109.25 81.5262L105.25 81.5262Z" fill="white"/>
<path d="M339 70.6923C339 64.9392 340.931 59.4216 344.37 55.3535C347.808 51.2854 352.471 49 357.333 49C361.528 49 365.575 50.7015 368.815 53.7815C368.844 53.8213 368.875 53.8602 368.907 53.8982L385.574 73.6195C386.341 74.5272 387.585 74.5272 388.352 73.6195C389.119 72.7119 389.119 71.2403 388.352 70.3326L376.698 56.5433L377.704 55.3538C381.142 51.2857 385.805 49.0003 390.667 49.0003C395.529 49.0003 400.192 51.2857 403.63 55.3538C407.068 59.4219 409 64.9394 409 70.6926C409 76.4458 407.068 81.9633 403.63 86.0314L375.852 118.9C374.829 120.11 373.171 120.11 372.148 118.9L362.888 107.944L362.808 107.849L344.37 86.0312C340.932 81.9631 339 76.4455 339 70.6923Z" fill="white"/>
<path fill-rule="evenodd" clip-rule="evenodd" d="M654 49.5V45.5C654 44.3954 653.105 43.5 652 43.5H644C642.895 43.5 642 44.3954 642 45.5V49.5V58.8499V59.454V60.151V60.8479V61.5449V62.1489V62.7065V63.4499V63.961C642 64.2587 641.759 64.5 641.461 64.5H627H623C621.895 64.5 621 65.3954 621 66.5L621 74.5C621 75.6046 621.895 76.5 623 76.5H627H641.668C641.851 76.5 642 76.6485 642 76.8317V77.2035V77.854V78.5045V79.1085V79.5731V112.5V116.5C642 117.605 642.895 118.5 644 118.5H652C653.105 118.5 654 117.605 654 116.5V112.5V79.5731V79.1085V78.5045V77.854V77.2035V76.8317C654 76.6485 654.149 76.5 654.332 76.5H669H673C674.105 76.5 675 75.6046 675 74.5V66.5C675 65.3954 674.105 64.5 673 64.5H669H654.539C654.241 64.5 654 64.2587 654 63.961V63.4499V62.7065V62.1489V61.5449V60.8479V60.151V59.454V58.8499V49.5Z" fill="white"/>
<path d="M652.5 45.5V49.5H655.5V45.5H652.5ZM644 45H652V42H644V45ZM643.5 49.5V45.5H640.5V49.5H643.5ZM643.5 58.8499V49.5H640.5V58.8499H643.5ZM643.5 59.454V58.8499H640.5V59.454H643.5ZM643.5 60.151V59.454H640.5V60.151H643.5ZM643.5 60.8479V60.151H640.5V60.8479H643.5ZM643.5 61.5449V60.8479H640.5V61.5449H643.5ZM643.5 62.1489V61.5449H640.5V62.1489H643.5ZM643.5 62.7065V62.1489H640.5V62.7065H643.5ZM643.5 63.4499V62.7065H640.5V63.4499H643.5ZM643.5 63.961V63.4499H640.5V63.961H643.5ZM627 66H641.461V63H627V66ZM623 66H627V63H623V66ZM622.5 74.5L622.5 66.5H619.5L619.5 74.5H622.5ZM627 75H623V78H627V75ZM641.668 75H627V78H641.668V75ZM643.5 77.2035V76.8317H640.5V77.2035H643.5ZM643.5 77.854V77.2035H640.5V77.854H643.5ZM643.5 78.5045V77.854H640.5V78.5045H643.5ZM643.5 79.1085V78.5045H640.5V79.1085H643.5ZM643.5 79.5731V79.1085H640.5V79.5731H643.5ZM643.5 112.5V79.5731H640.5V112.5H643.5ZM643.5 116.5V112.5H640.5V116.5H643.5ZM652 117H644V120H652V117ZM652.5 112.5V116.5H655.5V112.5H652.5ZM652.5 79.5731V112.5H655.5V79.5731H652.5ZM652.5 79.1085V79.5731H655.5V79.1085H652.5ZM652.5 78.5045V79.1085H655.5V78.5045H652.5ZM652.5 77.854V78.5045H655.5V77.854H652.5ZM652.5 77.2035V77.854H655.5V77.2035H652.5ZM652.5 76.8317V77.2035H655.5V76.8317H652.5ZM669 75H654.332V78H669V75ZM673 75H669V78H673V75ZM673.5 66.5V74.5L676.5 74.5V66.5L673.5 66.5ZM669 66H673V63H669V66ZM654.539 66H669V63H654.539V66ZM652.5 63.4499V63.961L655.5 63.961V63.4499L652.5 63.4499ZM652.5 62.7065V63.4499L655.5 63.4499V62.7065L652.5 62.7065ZM652.5 62.1489V62.7065L655.5 62.7065V62.1489L652.5 62.1489ZM652.5 61.5449V62.1489L655.5 62.1489V61.5449L652.5 61.5449ZM652.5 60.8479V61.5449L655.5 61.5449V60.8479L652.5 60.8479ZM652.5 60.151V60.8479L655.5 60.8479V60.151L652.5 60.151ZM652.5 59.454V60.151L655.5 60.151V59.454H652.5ZM652.5 58.8499V59.454H655.5V58.8499H652.5ZM652.5 49.5V58.8499H655.5V49.5H652.5ZM654.539 63C655.07 63 655.5 63.4303 655.5 63.961L652.5 63.961C652.5 65.0871 653.413 66 654.539 66V63ZM641.668 78C641.023 78 640.5 77.477 640.5 76.8317H643.5C643.5 75.8201 642.68 75 641.668 75V78ZM623 63C621.067 63 619.5 64.567 619.5 66.5H622.5C622.5 66.2239 622.724 66 623 66V63ZM676.5 66.5C676.5 64.567 674.933 63 673 63V66C673.276 66 673.5 66.2239 673.5 66.5L676.5 66.5ZM652 120C653.933 120 655.5 118.433 655.5 116.5H652.5C652.5 116.776 652.276 117 652 117V120ZM619.5 74.5C619.5 76.433 621.067 78 623 78V75C622.724 75 622.5 74.7761 622.5 74.5H619.5ZM655.5 76.8317C655.5 77.477 654.977 78 654.332 78V75C653.32 75 652.5 75.8201 652.5 76.8317H655.5ZM640.5 63.961C640.5 63.4303 640.93 63 641.461 63V66C642.587 66 643.5 65.0871 643.5 63.961H640.5ZM644 42C642.067 42 640.5 43.567 640.5 45.5H643.5C643.5 45.2239 643.724 45 644 45V42ZM673 78C674.933 78 676.5 76.433 676.5 74.5L673.5 74.5C673.5 74.7761 673.276 75 673 75V78ZM640.5 116.5C640.5 118.433 642.067 120 644 120V117C643.724 117 643.5 116.776 643.5 116.5H640.5ZM655.5 45.5C655.5 43.567 653.933 42 652 42V45C652.276 45 652.5 45.2239 652.5 45.5H655.5Z" fill="white"/>
</svg>
